<svg data-v-423bf9ae="" xmlns="http://www.w3.org/2000/svg" viewBox="0 0 395 90" class="iconLeft"><!----><!----><!----><g data-v-423bf9ae="" id="78d070c7-c802-4ed4-b911-de0f3dc31cd7" fill="#25BDD6" transform="matrix(5.830903271297242,0,0,5.830903271297242,104.69388438710439,-6.282798926824675)"><path d="M0.91 13.78L3.50 13.78C6.03 13.78 7.78 12.28 7.78 9.11C7.78 5.95 6.03 4.54 3.39 4.54L0.91 4.54ZM2.98 12.11L2.98 6.20L3.28 6.20C4.70 6.20 5.67 6.90 5.67 9.11C5.67 11.33 4.70 12.11 3.28 12.11ZM13.02 13.94C13.94 13.94 14.98 13.62 15.76 13.12L15.09 11.87C14.48 12.21 13.93 12.38 13.30 12.38C12.28 12.38 11.42 11.90 11.28 10.81L15.96 10.81C15.99 10.63 16.04 10.25 16.04 9.88C16.04 7.94 14.92 6.45 12.78 6.45C10.93 6.45 9.17 7.87 9.17 10.21C9.17 12.57 10.86 13.94 13.02 13.94ZM11.26 9.44C11.44 8.48 12.08 8.04 12.82 8.04C13.76 8.04 14.18 8.60 14.18 9.44ZM19.85 13.78L22.22 13.78L24.77 6.64L22.79 6.64L21.70 10.05C21.48 10.77 21.29 11.51 21.08 12.25L21.03 12.25C20.82 11.51 20.62 10.77 20.40 10.05L19.31 6.64L17.23 6.64ZM26.10 13.78L28.15 13.78L28.15 9.91L30.65 9.91L30.65 13.78L32.70 13.78L32.70 4.54L30.65 4.54L30.65 8.11L28.15 8.11L28.15 4.54L26.10 4.54ZM36.72 13.94C37.72 13.94 38.44 13.47 39.06 12.74L39.12 12.74L39.27 13.78L40.95 13.78L40.95 6.64L38.89 6.64L38.89 11.34C38.42 12.00 38.05 12.19 37.53 12.19C36.76 12.19 36.53 11.76 36.53 10.78L36.53 6.64L34.47 6.64L34.47 11.05C34.47 12.85 35.14 13.94 36.72 13.94ZM46.73 13.94C48.29 13.94 49.74 12.53 49.74 10.08C49.74 7.88 48.68 6.45 46.94 6.45C46.27 6.45 45.56 6.78 45.01 7.29L45.07 6.16L45.07 3.65L43.01 3.65L43.01 13.78L44.62 13.78L44.79 12.99L44.84 12.99C45.42 13.62 46.09 13.94 46.73 13.94ZM46.27 12.26C45.91 12.26 45.46 12.14 45.07 11.77L45.07 8.83C45.50 8.36 45.91 8.13 46.35 8.13C47.22 8.13 47.63 8.82 47.63 10.12C47.63 11.61 47.03 12.26 46.27 12.26Z"></path></g><!----><g data-v-423bf9ae="" id="08cb4509-80a3-4698-929a-3d326853fe73" transform="matrix(2.8125,0,0,2.8125,0,0)" stroke="none" fill="#25BDD6"><path d="M15.965 16.258l.707-.707 10.39 10.39-.707.707z"></path><path d="M4.935 26.357L26.018 5.274l.707.707L5.642 27.065z"></path><path d="M31 1v4.194h-4.194V1H31m1-1h-6.194v6.194H32V0zM31 26.806V31h-4.194v-4.194H31m1-1h-6.194V32H32v-6.194zM5.194 26.806V31H1v-4.194h4.194m1-1H0V32h6.194v-6.194z"></path></g><!----></svg>